<svg width="276" height="59" viewBox="0 0 276 59" fill="none" xmlns="http://www.w3.org/2000/svg">
<path d="M57.4889 20.036L37.4533 20.036L37.4533 6.20161C37.4533 2.38524 33.637 1.29285e-06 30.7748 1.04262e-06L18.8488 0L18.8488 32.9162C18.8488 36.7326 22.6651 38.6408 26.0044 38.6408L50.8104 38.6408C56.1532 38.6408 57.4889 34.1884 57.4889 31.9621V20.036Z" fill="#0CADD4"/>
<path d="M40.525 8.48213C40.525 3.79758 44.3225 2.22702e-06 49.0069 2.63656e-06C53.6914 3.04609e-06 57.4889 3.79758 57.4889 8.48213C57.4889 13.1667 53.6914 16.9643 49.0069 16.9643C44.3225 16.9643 40.525 13.1667 40.525 8.48213Z" fill="#0CADD4"/>
<path d="M0 38.3965H20.0356V52.2308C20.0356 56.0472 23.8519 58.4324 26.7141 58.4324H38.6401V25.5162C38.6401 21.6998 34.8238 19.7916 31.4845 19.7916H6.67853C1.33571 19.7916 0 24.2441 0 26.4703V38.3965Z" fill="#0CADD4"/>
<path d="M16.9639 49.9503C16.9639 54.6349 13.1664 58.4324 8.48197 58.4324C3.79751 58.4324 0 54.6349 0 49.9503C0 45.2658 3.79751 41.4682 8.48197 41.4682C13.1664 41.4682 16.9639 45.2658 16.9639 49.9503Z" fill="#0CADD4"/>
<path d="M78.2495 46.6869C75.5825 46.6869 73.2869 46.1467 71.3627 45.0664C69.4497 43.9749 67.9756 42.4332 66.9403 40.4414C65.905 38.4383 65.3874 36.0695 65.3874 33.335C65.3874 30.668 65.905 28.3274 66.9403 26.3131C67.9756 24.2987 69.4328 22.7289 71.3121 21.6036C73.2025 20.4783 75.4194 19.9157 77.9625 19.9157C79.673 19.9157 81.2653 20.1914 82.7394 20.7428C84.2248 21.2829 85.5189 22.0988 86.6217 23.1903C87.7357 24.2819 88.6022 25.6548 89.2211 27.309C89.84 28.9519 90.1495 30.8762 90.1495 33.0818V35.0567H68.2569V30.6005H83.3808C83.3808 29.5652 83.1558 28.6481 82.7056 27.8491C82.2555 27.0501 81.631 26.4256 80.832 25.9755C80.0443 25.5141 79.1272 25.2834 78.0807 25.2834C76.9892 25.2834 76.0214 25.5366 75.1774 26.043C74.3447 26.5381 73.692 27.2077 73.2194 28.0517C72.7468 28.8844 72.5049 29.8128 72.4936 30.8368V35.0736C72.4936 36.3565 72.7299 37.4649 73.2025 38.3989C73.6864 39.3329 74.3672 40.0531 75.245 40.5595C76.1227 41.0659 77.1636 41.3191 78.3676 41.3191C79.1666 41.3191 79.898 41.2066 80.562 40.9815C81.2259 40.7565 81.7942 40.4189 82.2668 39.9687C82.7394 39.5186 83.0995 38.9672 83.3471 38.3145L89.9975 38.7534C89.66 40.3513 88.9679 41.7467 87.9214 42.9396C86.8861 44.1211 85.547 45.0439 83.9041 45.7078C82.2724 46.3605 80.3875 46.6869 78.2495 46.6869Z" fill="#0CADD4"/>
<path d="M102.235 46.67C100.581 46.67 99.1068 46.383 97.8127 45.8091C96.5186 45.224 95.4946 44.3631 94.7407 43.2265C93.998 42.0787 93.6266 40.6496 93.6266 38.9391C93.6266 37.4987 93.8911 36.289 94.4199 35.3099C94.9488 34.3309 95.669 33.5432 96.5805 32.9468C97.492 32.3504 98.5273 31.9002 99.6863 31.5964C100.857 31.2926 102.083 31.0788 103.366 30.955C104.874 30.7974 106.089 30.6511 107.012 30.5161C107.935 30.3698 108.604 30.156 109.021 29.8747C109.437 29.5933 109.645 29.177 109.645 28.6256V28.5243C109.645 27.4553 109.308 26.6281 108.632 26.043C107.968 25.4578 107.023 25.1652 105.797 25.1652C104.503 25.1652 103.473 25.4522 102.708 26.0261C101.943 26.5888 101.436 27.2977 101.189 28.1529L94.5381 27.6128C94.8757 26.0374 95.5396 24.6757 96.5299 23.5279C97.5201 22.3688 98.7973 21.4798 100.361 20.8609C101.937 20.2307 103.76 19.9157 105.83 19.9157C107.271 19.9157 108.649 20.0844 109.966 20.422C111.294 20.7596 112.47 21.2829 113.494 21.9919C114.529 22.7008 115.345 23.6123 115.941 24.7264C116.538 25.8292 116.836 27.1514 116.836 28.6931V46.1805H110.017V42.5851H109.814C109.398 43.3953 108.841 44.1099 108.143 44.7288C107.445 45.3365 106.607 45.8147 105.628 46.1636C104.649 46.5012 103.518 46.67 102.235 46.67ZM104.294 41.7073C105.352 41.7073 106.286 41.4992 107.096 41.0828C107.907 40.6552 108.542 40.0813 109.004 39.3611C109.465 38.6409 109.696 37.825 109.696 36.9135V34.1621C109.471 34.3084 109.161 34.4435 108.767 34.5672C108.385 34.6798 107.952 34.7867 107.468 34.8879C106.984 34.978 106.5 35.0624 106.016 35.1411C105.532 35.2087 105.093 35.2706 104.699 35.3268C103.856 35.4506 103.118 35.6475 102.488 35.9176C101.858 36.1877 101.369 36.5534 101.02 37.0148C100.671 37.4649 100.497 38.0276 100.497 38.7028C100.497 39.6818 100.851 40.4301 101.56 40.9478C102.28 41.4542 103.192 41.7073 104.294 41.7073Z" fill="#0CADD4"/>
<path d="M143.986 27.6466L137.403 28.0517C137.291 27.489 137.049 26.9826 136.678 26.5325C136.306 26.0711 135.817 25.7054 135.209 25.4353C134.613 25.154 133.898 25.0133 133.065 25.0133C131.951 25.0133 131.012 25.2496 130.246 25.7223C129.481 26.1836 129.099 26.8026 129.099 27.579C129.099 28.198 129.346 28.7212 129.841 29.1489C130.336 29.5765 131.186 29.9197 132.39 30.1785L137.083 31.1238C139.603 31.6414 141.482 32.4742 142.72 33.622C143.958 34.7698 144.577 36.2777 144.577 38.1457C144.577 39.845 144.076 41.336 143.075 42.6189C142.085 43.9017 140.723 44.9032 138.99 45.6234C137.268 46.3324 135.282 46.6869 133.032 46.6869C129.599 46.6869 126.865 45.9723 124.828 44.5431C122.803 43.1027 121.615 41.1447 121.267 38.669L128.339 38.2976C128.553 39.3442 129.071 40.1432 129.892 40.6946C130.713 41.2347 131.766 41.5048 133.048 41.5048C134.309 41.5048 135.322 41.2628 136.087 40.779C136.863 40.2838 137.257 39.648 137.268 38.8716C137.257 38.2189 136.981 37.6844 136.441 37.268C135.901 36.8404 135.068 36.514 133.943 36.289L129.453 35.3943C126.921 34.888 125.036 34.0102 123.799 32.7611C122.572 31.512 121.959 29.9197 121.959 27.9842C121.959 26.3187 122.409 24.8839 123.309 23.6798C124.221 22.4757 125.498 21.5474 127.141 20.8947C128.795 20.242 130.73 19.9157 132.947 19.9157C136.222 19.9157 138.799 20.6077 140.678 21.9919C142.568 23.376 143.671 25.2609 143.986 27.6466Z" fill="#0CADD4"/>
<path d="M153.544 55.9032C152.633 55.9032 151.778 55.83 150.979 55.6837C150.191 55.5487 149.538 55.3743 149.021 55.1605L150.641 49.7927C151.485 50.0515 152.245 50.1922 152.92 50.2147C153.606 50.2372 154.197 50.0797 154.692 49.7421C155.198 49.4045 155.609 48.8306 155.924 48.0204L156.346 46.9232L147.046 20.2532H154.608L159.975 39.2936H160.245L165.664 20.2532H173.276L163.199 48.9825C162.715 50.3779 162.057 51.5932 161.224 52.6285C160.403 53.6751 159.362 54.4797 158.102 55.0423C156.841 55.6162 155.322 55.9032 153.544 55.9032Z" fill="#0CADD4"/>
<path d="M188.805 46.67C186.071 46.67 183.725 46.1073 181.767 44.982C179.82 43.8567 178.323 42.2925 177.277 40.2895C176.23 38.2751 175.707 35.9457 175.707 33.3013C175.707 30.6455 176.23 28.3161 177.277 26.3131C178.334 24.2987 179.837 22.7289 181.783 21.6036C183.741 20.4783 186.076 19.9157 188.788 19.9157C191.185 19.9157 193.273 20.3489 195.051 21.2154C196.84 22.0819 198.235 23.3085 199.237 24.8952C200.25 26.4706 200.784 28.3217 200.84 30.4486H193.126C192.969 29.1207 192.519 28.0798 191.776 27.3258C191.045 26.5719 190.088 26.1949 188.907 26.1949C187.95 26.1949 187.112 26.465 186.392 27.0051C185.671 27.534 185.109 28.3217 184.704 29.3683C184.31 30.4036 184.113 31.6864 184.113 33.2169C184.113 34.7473 184.31 36.0414 184.704 37.0992C185.109 38.1457 185.671 38.9391 186.392 39.4792C187.112 40.0081 187.95 40.2726 188.907 40.2726C189.672 40.2726 190.347 40.1094 190.932 39.7831C191.528 39.4567 192.018 38.9785 192.401 38.3483C192.783 37.7069 193.025 36.9304 193.126 36.0189H200.84C200.762 38.157 200.227 40.025 199.237 41.623C198.258 43.2209 196.879 44.4644 195.101 45.3534C193.335 46.2311 191.236 46.67 188.805 46.67Z" fill="#0CADD4"/>
<path d="M212.373 46.6193C210.719 46.6193 209.25 46.3436 207.968 45.7922C206.696 45.2296 205.689 44.3856 204.946 43.2603C204.215 42.1237 203.849 40.7002 203.849 38.9897C203.849 37.5493 204.102 36.334 204.609 35.3437C205.115 34.3534 205.813 33.5488 206.702 32.9299C207.591 32.311 208.615 31.844 209.774 31.5289C210.933 31.2025 212.171 30.9831 213.487 30.8706C214.961 30.7355 216.148 30.5949 217.049 30.4486C217.949 30.291 218.602 30.0716 219.007 29.7903C219.423 29.4977 219.631 29.087 219.631 28.5581V28.4737C219.631 27.6072 219.333 26.9376 218.737 26.465C218.14 25.9923 217.336 25.756 216.323 25.756C215.231 25.756 214.354 25.9923 213.69 26.465C213.026 26.9376 212.604 27.5903 212.424 28.423L204.811 28.1529C205.036 26.5775 205.616 25.1709 206.55 23.933C207.495 22.6839 208.789 21.7049 210.432 20.996C212.086 20.2758 214.072 19.9157 216.39 19.9157C218.045 19.9157 219.569 20.1126 220.965 20.5064C222.36 20.889 223.575 21.4517 224.611 22.1944C225.646 22.9259 226.445 23.8261 227.008 24.8952C227.581 25.9642 227.868 27.1852 227.868 28.5581V46.1805H220.104V42.5682H219.901C219.44 43.446 218.849 44.1887 218.129 44.7963C217.42 45.404 216.582 45.8598 215.614 46.1636C214.657 46.4674 213.577 46.6193 212.373 46.6193ZM214.922 41.2178C215.811 41.2178 216.61 41.0378 217.319 40.6777C218.039 40.3176 218.613 39.8224 219.04 39.1923C219.468 38.5508 219.682 37.8081 219.682 36.9642V34.4997C219.446 34.6235 219.159 34.736 218.821 34.8373C218.495 34.9386 218.135 35.0342 217.741 35.1243C217.347 35.2143 216.942 35.2931 216.525 35.3606C216.109 35.4281 215.71 35.49 215.327 35.5463C214.551 35.67 213.887 35.8613 213.335 36.1202C212.795 36.379 212.379 36.7166 212.086 37.1329C211.805 37.5381 211.664 38.0219 211.664 38.5846C211.664 39.4398 211.968 40.0925 212.576 40.5426C213.195 40.9928 213.977 41.2178 214.922 41.2178Z" fill="#0CADD4"/>
<path d="M232.915 46.1805V20.2532H240.933V24.9796H241.203C241.676 23.2691 242.447 21.9975 243.516 21.1647C244.585 20.3208 245.828 19.8988 247.246 19.8988C247.629 19.8988 248.022 19.9269 248.428 19.9832C248.833 20.0282 249.21 20.1013 249.558 20.2026V27.3765C249.165 27.2414 248.647 27.1345 248.006 27.0558C247.375 26.977 246.813 26.9376 246.318 26.9376C245.339 26.9376 244.455 27.157 243.668 27.5959C242.891 28.0235 242.278 28.6256 241.828 29.402C241.389 30.1673 241.169 31.0675 241.169 32.1028V46.1805H232.915Z" fill="#0CADD4"/>
<path d="M263.695 46.67C260.983 46.67 258.642 46.1355 256.673 45.0664C254.715 43.9861 253.207 42.4501 252.149 40.4583C251.103 38.4552 250.58 36.0752 250.58 33.3181C250.58 30.6399 251.109 28.2992 252.166 26.2962C253.224 24.2819 254.715 22.7177 256.639 21.6036C258.564 20.4783 260.831 19.9157 263.442 19.9157C265.287 19.9157 266.975 20.2026 268.506 20.7765C270.036 21.3504 271.358 22.2 272.472 23.3254C273.586 24.4507 274.453 25.8404 275.072 27.4946C275.691 29.1376 276 31.0225 276 33.1493V35.2087H253.466V30.4148H268.32C268.309 29.5371 268.1 28.755 267.695 28.0685C267.29 27.3821 266.733 26.8476 266.024 26.465C265.327 26.0711 264.522 25.8742 263.611 25.8742C262.688 25.8742 261.861 26.0824 261.129 26.4987C260.398 26.9039 259.818 27.4609 259.391 28.1698C258.963 28.8675 258.738 29.6609 258.716 30.5499V35.4281C258.716 36.4859 258.924 37.4143 259.34 38.2132C259.756 39.001 260.347 39.6143 261.112 40.0531C261.878 40.492 262.789 40.7114 263.847 40.7114C264.578 40.7114 265.242 40.6102 265.839 40.4076C266.435 40.2051 266.947 39.9068 267.375 39.513C267.802 39.1191 268.123 38.6352 268.337 38.0613L275.916 38.2808C275.601 39.98 274.908 41.4598 273.839 42.7201C272.782 43.9692 271.392 44.9426 269.67 45.6403C267.949 46.3268 265.957 46.67 263.695 46.67Z" fill="#0CADD4"/>
</svg>
